# Blender v2.75 (sub 0) OBJ File: 'box.blend'
# www.blender.org
mtllib box.mtl
o Cube
v 1.000000 0.007388 -1.000000
v 1.000000 -1.000000 1.000000
v -1.000000 -0.276776 1.000000
v -1.000000 -1.000000 -1.000000
v 1.000000 1.000000 -0.999999
v 0.999999 1.486568 1.000001
v -1.000000 1.000000 1.000000
v -1.000000 1.000000 0.063637
vn -0.322000 -0.890300 0.322000
vn -0.236400 0.971700 -0.000000
vn 1.000000 0.000000 0.000000
vn -0.000000 0.000000 1.000000
vn -1.000000 -0.000000 -0.000000
vn -0.230200 0.456900 -0.859200
vn 0.410300 -0.814500 -0.410300
vn -0.124700 0.964100 -0.234500
vn -0.469500 0.000000 -0.882900
usemtl Material
s off
f 2//1 3//1 4//1
f 8//2 7//2 6//2
f 5//3 6//3 2//3
f 6//4 7//4 3//4
f 3//5 7//5 8//5
f 1//6 4//6 8//6
f 1//7 2//7 4//7
f 5//8 8//8 6//8
f 1//3 5//3 2//3
f 2//4 6//4 3//4
f 4//5 3//5 8//5
f 5//9 1//9 8//9
